<svg xmlns="http://www.w3.org/2000/svg" viewBox="0 0 720 720" role="img" aria-label="Mapa escenari 7.2 Lluites">
<rect width="720" height="720" fill="#07120c"/><defs><pattern id="g" width="60" height="60" patternUnits="userSpaceOnUse"><path d="M60 0H0V60" fill="none" stroke="#9cff4a" stroke-opacity=".12"/></pattern><style>text{font-family:Arial,sans-serif;font-weight:700}.z{font-size:18px}.l{font-size:14px}.s{font-size:12px}.zoneb{fill:#2fb8ff;fill-opacity:.14;stroke:#2fb8ff;stroke-width:4;stroke-dasharray:12 8}.zoner{fill:#ff3b35;fill-opacity:.14;stroke:#ff3b35;stroke-width:4;stroke-dasharray:12 8}.wall{fill:#3b2418;stroke:#9a6b45;stroke-width:3}.minor{fill:#ffb329;stroke:#fff;stroke-width:3}.leader{fill:#9cff4a;stroke:#fff;stroke-width:4}</style></defs>
<rect x="40" y="40" width="640" height="640" fill="#4a2311" stroke="#43d66f" stroke-width="4"/><rect x="40" y="40" width="640" height="640" fill="url(#g)"/>
<circle cx="160" cy="160" r="120" class="zoneb"/><text x="160" y="160" fill="#8fd8ff" class="z" text-anchor="middle">Lider defensor</text><polygon points="680,680 440,680 680,440" class="zoneb"/><text x="590" y="625" fill="#8fd8ff" class="z" text-anchor="middle">Lliga defensora</text><polygon points="40,680 280,680 40,440" class="zoner"/><polygon points="680,40 440,40 680,280" class="zoner"/><text x="168" y="625" fill="#ff9b92" class="z" text-anchor="middle">Atacants</text><text x="590" y="96" fill="#ff9b92" class="z" text-anchor="middle">Atacants</text>
<rect x="290" y="120" width="52" height="180" class="wall"/><rect x="380" y="420" width="52" height="180" class="wall"/><rect x="250" y="330" width="220" height="48" class="wall"/><circle cx="160" cy="160" r="24" class="leader"/><circle cx="360" cy="360" r="17" class="minor"/><circle cx="250" cy="520" r="17" fill="#e87cff" stroke="#fff" stroke-width="3"/><circle cx="490" cy="210" r="17" fill="#e87cff" stroke="#fff" stroke-width="3"/><text x="360" y="706" fill="#d5e8c8" class="l" text-anchor="middle">24&quot; x 24&quot; · emboscada · el lider defensor queda separat</text></svg>
