<svg xmlns="http://www.w3.org/2000/svg" viewBox="0 0 720 720" role="img" aria-label="Mapa escenari 6 El dilema">
<rect width="720" height="720" fill="#07120c"/><defs><pattern id="g" width="60" height="60" patternUnits="userSpaceOnUse"><path d="M60 0H0V60" fill="none" stroke="#9cff4a" stroke-opacity=".12"/></pattern><style>text{font-family:Arial,sans-serif;font-weight:700}.z{font-size:18px}.l{font-size:14px}.s{font-size:12px}.zoneb{fill:#2fb8ff;fill-opacity:.14;stroke:#2fb8ff;stroke-width:4;stroke-dasharray:12 8}.zoner{fill:#ff3b35;fill-opacity:.14;stroke:#ff3b35;stroke-width:4;stroke-dasharray:12 8}.glass{stroke:#b7d4df;stroke-width:8;stroke-dasharray:22 16}.srv{fill:#26313a;stroke:#9aa4aa;stroke-width:3}.april{fill:#ffb329;stroke:#fff;stroke-width:4}.machine{fill:#9cff4a;stroke:#fff;stroke-width:4}.minor{fill:#e87cff;stroke:#fff;stroke-width:3}</style></defs>
<rect x="40" y="40" width="640" height="640" fill="#2c3e50" stroke="#43d66f" stroke-width="4"/><rect x="40" y="40" width="640" height="640" fill="url(#g)"/>
<rect x="40" y="40" width="640" height="120" class="zoner"/><rect x="40" y="560" width="640" height="120" class="zoneb"/><text x="360" y="112" fill="#ff9b92" class="z" text-anchor="middle">Vora nord 6&quot;</text><text x="360" y="632" fill="#8fd8ff" class="z" text-anchor="middle">Vora sud 6&quot;</text>
<path d="M360 145V575" class="glass"/><text x="360" y="135" fill="#dce7e9" class="s" text-anchor="middle">Reixa / cristall entre sales</text>
<rect x="165" y="275" width="120" height="120" class="srv"/><rect x="435" y="275" width="120" height="120" class="srv"/><circle cx="300" cy="360" r="28" class="april"/><text x="300" y="332" fill="#fff" class="z" text-anchor="middle">April</text><circle cx="420" cy="360" r="28" class="machine"/><text x="420" y="332" fill="#fff" class="z" text-anchor="middle">Maquina</text>
<circle cx="165" cy="500" r="17" class="minor"/><circle cx="555" cy="220" r="17" class="minor"/><circle cx="360" cy="500" r="17" fill="#ffb329" stroke="#fff" stroke-width="3"/><text x="360" y="706" fill="#d5e8c8" class="l" text-anchor="middle">24&quot; x 24&quot; · dos majors a 6&quot; o menys · trieu objectiu en secret</text></svg>
