<svg xmlns="http://www.w3.org/2000/svg" viewBox="0 0 720 720" role="img" aria-label="Mapa escenari 2 Obriu-lo">
<rect width="720" height="720" fill="#07120c"/><defs><pattern id="g" width="60" height="60" patternUnits="userSpaceOnUse"><path d="M60 0H0V60" fill="none" stroke="#9cff4a" stroke-opacity=".12"/></pattern><style>text{font-family:Arial,sans-serif;font-weight:700}.z{font-size:18px}.l{font-size:14px}.s{font-size:12px}.zonea{fill:#ff3b35;fill-opacity:.12;stroke:#ff3b35;stroke-width:4;stroke-dasharray:12 8}.zoned{fill:#2fb8ff;fill-opacity:.14;stroke:#2fb8ff;stroke-width:4;stroke-dasharray:12 8}.wall{fill:#384047;stroke:#9aa4aa;stroke-width:3}.obj{fill:#9cff4a;stroke:#fff;stroke-width:4}.car{fill:#ff8b1f;stroke:#111;stroke-width:3}.crate{fill:#6b4729;stroke:#c49a54;stroke-width:2}</style></defs>
<rect x="40" y="40" width="640" height="640" fill="#171b20" stroke="#43d66f" stroke-width="4"/><rect x="40" y="40" width="640" height="640" fill="url(#g)"/>
<rect x="40" y="40" width="640" height="120" class="zonea"/><rect x="40" y="560" width="640" height="120" class="zonea"/><rect x="40" y="160" width="120" height="400" class="zonea"/><rect x="560" y="160" width="120" height="400" class="zonea"/><text x="360" y="94" fill="#ff9b92" class="z" text-anchor="middle">Atacant: qualsevol vora 6&quot;</text>
<circle cx="360" cy="360" r="120" class="zoned"/><text x="360" y="506" fill="#8fd8ff" class="z" text-anchor="middle">Defensor: radi 6&quot; del major</text>
<rect x="210" y="270" width="300" height="180" class="wall"/><rect x="285" y="300" width="150" height="120" fill="#4d574b" stroke="#d9f5ff" stroke-width="3"/><text x="360" y="365" fill="#fff" class="z" text-anchor="middle">Contenidor bloquejat</text><circle cx="360" cy="360" r="24" class="obj"/>
<rect x="95" y="105" width="86" height="42" class="car"/><text x="138" y="132" fill="#111" class="s" text-anchor="middle">Cotxe</text><rect x="540" y="555" width="86" height="42" class="car"/><text x="583" y="582" fill="#111" class="s" text-anchor="middle">Cotxe</text><rect x="115" y="455" width="54" height="38" class="crate"/><rect x="545" y="215" width="54" height="38" class="crate"/>
<circle cx="190" cy="210" r="17" fill="#ffb329" stroke="#fff" stroke-width="3"/><circle cx="530" cy="475" r="17" fill="#ffb329" stroke="#fff" stroke-width="3"/><text x="360" y="706" fill="#d5e8c8" class="l" text-anchor="middle">24&quot; x 24&quot; · assalt al contenidor · defensor al centre</text></svg>
