<svg xmlns="http://www.w3.org/2000/svg" viewBox="0 0 720 720" role="img" aria-label="Mapa escenari 3 Informe d'O'Neil">
<rect width="720" height="720" fill="#07120c"/><defs><pattern id="g" width="60" height="60" patternUnits="userSpaceOnUse"><path d="M60 0H0V60" fill="none" stroke="#9cff4a" stroke-opacity=".12"/></pattern><style>text{font-family:Arial,sans-serif;font-weight:700}.z{font-size:18px}.l{font-size:14px}.s{font-size:12px}.b{fill:#202025;stroke:#6e7180;stroke-width:3}.road{fill:#38234d}.obj{fill:#ffb329;stroke:#fff;stroke-width:4}.van{fill:#ff8b1f;stroke:#111;stroke-width:3}.crate{fill:#6b4729;stroke:#c49a54;stroke-width:2}.sewer{fill:#15191d;stroke:#aab4c9;stroke-width:3}</style></defs>
<rect x="40" y="40" width="640" height="640" class="road" stroke="#43d66f" stroke-width="4"/><rect x="40" y="40" width="640" height="640" fill="url(#g)"/>
<rect x="70" y="70" width="160" height="180" class="b"/><rect x="490" y="70" width="160" height="180" class="b"/><rect x="70" y="470" width="160" height="180" class="b"/><rect x="490" y="470" width="160" height="180" class="b"/>
<path d="M260 40V680M460 40V680M40 280H680M40 440H680" stroke="#16161a" stroke-width="34"/><path d="M360 40V680M40 360H680" stroke="#ffdd91" stroke-width="3" stroke-dasharray="20 18" opacity=".55"/>
<circle cx="360" cy="360" r="24" class="obj"/><text x="360" y="404" fill="#fff" class="z" text-anchor="middle">April</text><rect x="305" y="145" width="110" height="54" class="van"/><text x="360" y="178" fill="#111" class="s" text-anchor="middle">Channel 6</text><rect x="286" y="535" width="56" height="38" class="crate"/><circle cx="430" cy="560" r="15" class="sewer"/><circle cx="160" cy="350" r="17" fill="#9cff4a" stroke="#fff" stroke-width="3"/><circle cx="560" cy="360" r="17" fill="#9cff4a" stroke="#fff" stroke-width="3"/><text x="360" y="48" fill="#d5e8c8" class="s" text-anchor="middle">Desplegament altern: sense zones fixes</text><text x="360" y="706" fill="#d5e8c8" class="l" text-anchor="middle">24&quot; x 24&quot; · carrers estrets · April es mou si falla el repte</text></svg>
