<svg xmlns="http://www.w3.org/2000/svg" viewBox="0 0 720 720" role="img" aria-label="Mapa escenari 7.3 Slash">
<rect width="720" height="720" fill="#07120c"/><defs><pattern id="g" width="60" height="60" patternUnits="userSpaceOnUse"><path d="M60 0H0V60" fill="none" stroke="#9cff4a" stroke-opacity=".12"/></pattern><style>text{font-family:Arial,sans-serif;font-weight:700}.z{font-size:18px}.l{font-size:14px}.s{font-size:12px}.zone{fill:#f2ffe9;fill-opacity:.12;stroke:#f2ffe9;stroke-width:4;stroke-dasharray:12 8}.portal{fill:#ff67b8;stroke:#fff;stroke-width:4}.slash{fill:#2ecc71;stroke:#fff;stroke-width:4}.mach{fill:#9cff4a;stroke:#fff;stroke-width:3}.wall{fill:#175a39;stroke:#8ad8a4;stroke-width:3}</style></defs>
<rect x="40" y="40" width="640" height="640" fill="#1e824c" stroke="#43d66f" stroke-width="4"/><rect x="40" y="40" width="640" height="640" fill="url(#g)"/>
<polygon points="680,40 560,40 680,160" class="zone"/><polygon points="40,680 40,560 160,680" class="zone"/><polygon points="680,680 560,680 680,560" class="zone"/><text x="604" y="95" fill="#fff" class="s" text-anchor="middle">Cantonada</text><text x="98" y="635" fill="#fff" class="s" text-anchor="middle">Cantonada</text><text x="620" y="635" fill="#fff" class="s" text-anchor="middle">Cantonada</text>
<circle cx="100" cy="100" r="42" class="portal"/><text x="100" y="106" fill="#fff" class="z" text-anchor="middle">Portal</text><circle cx="160" cy="160" r="30" class="slash"/><text x="224" y="166" fill="#fff" class="z" text-anchor="middle">Slash</text>
<circle cx="360" cy="160" r="22" class="mach"/><text x="360" y="200" fill="#fff" class="s" text-anchor="middle">Maquina</text><circle cx="190" cy="360" r="22" class="mach"/><text x="190" y="400" fill="#fff" class="s" text-anchor="middle">Diafragma</text><circle cx="430" cy="430" r="22" class="mach"/><text x="430" y="470" fill="#fff" class="s" text-anchor="middle">Generador</text>
<rect x="480" y="165" width="70" height="55" class="wall"/><rect x="260" y="520" width="70" height="55" class="wall"/><rect x="520" y="500" width="70" height="55" class="wall"/><text x="360" y="706" fill="#d5e8c8" class="l" text-anchor="middle">24&quot; x 24&quot; · portal en cantonada · tres maquines a activar el mateix torn</text></svg>
