<svg viewBox="0 0 480 480" xmlns="http://www.w3.org/2000/svg"><rect width="480" height="480" fill="#100b12"/><g stroke="rgba(200,164,74,.09)"><path d="M60 0v480M120 0v480M180 0v480M240 0v480M300 0v480M360 0v480M420 0v480M0 60h480M0 120h480M0 180h480M0 240h480M0 300h480M0 360h480M0 420h480"/></g><rect x="0" y="420" width="480" height="60" fill="rgba(98,143,200,.12)"/><rect x="207" y="207" width="66" height="66" fill="#19150e" stroke="#9b6bd6" stroke-width="3"/><text x="240" y="244" fill="#9b6bd6" font-size="11" text-anchor="middle">PAGODA</text><ellipse cx="240" cy="240" rx="145" ry="105" fill="none" stroke="rgba(155,107,214,.35)" stroke-width="3" stroke-dasharray="8,6"/><g fill="#65b88a"><circle cx="240" cy="110" r="11"/><text x="240" y="94" fill="#65b88a" font-size="9" text-anchor="middle">L1</text><circle cx="350" cy="170" r="11"/><text x="372" y="173" fill="#65b88a" font-size="9">L2</text><circle cx="350" cy="310" r="11"/><text x="372" y="313" fill="#65b88a" font-size="9">L3</text><circle cx="240" cy="370" r="11"/><text x="240" y="394" fill="#65b88a" font-size="9" text-anchor="middle">L4</text><circle cx="130" cy="310" r="11"/><text x="105" y="313" fill="#65b88a" font-size="9">L5</text><circle cx="130" cy="170" r="11"/><text x="105" y="173" fill="#65b88a" font-size="9">L6</text></g><rect x="220" y="142" width="40" height="24" fill="#3b2618" stroke="#c8a44a"/><text x="240" y="136" fill="#c8a44a" font-size="9" text-anchor="middle">HQ ALTAR</text><rect x="92" y="82" width="46" height="24" fill="#2a2118" stroke="#c8a44a"/><text x="115" y="75" fill="#c8a44a" font-size="9" text-anchor="middle">TOMBA</text><rect x="342" y="82" width="46" height="24" fill="#2a2118" stroke="#c8a44a"/><text x="365" y="75" fill="#c8a44a" font-size="9" text-anchor="middle">TOMBA</text><g stroke="#d35a45" stroke-width="3"><path d="M232 180l18 18M250 180l-18 18"/><path d="M130 230l18 18M148 230l-18 18"/><path d="M340 230l18 18M358 230l-18 18"/></g><text x="240" y="205" fill="#d35a45" font-size="10" text-anchor="middle">SACERDOTE</text><polygon points="240,292 260,315 240,338 220,315" fill="#9b6bd6"/><text x="240" y="355" fill="#9b6bd6" font-size="10" text-anchor="middle">ESQUERDA</text></svg>