<svg xmlns="http://www.w3.org/2000/svg" viewBox="0 0 900 900" role="img" aria-label="Mapa episodi 2">
  <rect width="900" height="900" fill="#e7e1d2"/>
  <rect x="60" y="60" width="780" height="780" fill="none" stroke="#2b2b2b" stroke-width="6"/>
  <rect x="110" y="115" width="240" height="180" fill="#b9b2a1" stroke="#333" stroke-width="4"/>
  <rect x="520" y="120" width="220" height="150" fill="#9aa0a4" stroke="#333" stroke-width="4"/>
  <circle cx="680" cy="650" r="135" fill="#67845f" opacity=".35"/>
  <rect x="615" y="620" width="110" height="80" fill="#7b6a4f" stroke="#333" stroke-width="4"/>
  <path d="M90 430 H830" stroke="#555" stroke-width="22" opacity=".35"/>
  <path d="M230 115 L230 55 M210 75 L250 75" stroke="#111" stroke-width="6"/>
  <circle cx="230" cy="95" r="28" fill="#c0392b"/><text x="182" y="335" font-size="22">Antena</text>
  <circle cx="610" cy="210" r="28" fill="#c0392b"/><text x="565" y="305" font-size="22">Cassette</text>
  <circle cx="405" cy="430" r="28" fill="#c0392b"/><text x="356" y="470" font-size="22">Mapa</text>
  <circle cx="670" cy="650" r="28" fill="#c0392b"/><text x="595" y="740" font-size="22">Caseta</text>
  <circle cx="450" cy="450" r="36" fill="#111"/><text x="402" y="410" font-size="24">Major</text>
  <text x="140" y="210" font-size="28">Terrat</text>
  <text x="600" y="195" font-size="28">Casa</text>
  <text x="590" y="610" font-size="26">Font de Garrut</text>
</svg>
